<svg id="settings-filter.2" xmlns="http://www.w3.org/2000/svg" width="24" height="24" viewBox="0 0 24 24">
  <g id="Group_2052" data-name="Group 2052" transform="translate(3 3)">
    <path id="Path_9132" data-name="Path 9132" d="M21,5H18" transform="translate(-18 -3)" fill="none" stroke="#012200" stroke-linecap="round" stroke-linejoin="round" stroke-width="1.5"/>
    <path id="Path_9133" data-name="Path 9133" d="M14,5H3" transform="translate(4 -3)" fill="none" stroke="#012200" stroke-linecap="round" stroke-linejoin="round" stroke-width="1.5"/>
    <path id="Path_9134" data-name="Path 9134" d="M21,12H10" transform="translate(-10 -3)" fill="none" stroke="#012200" stroke-linecap="round" stroke-linejoin="round" stroke-width="1.5"/>
    <path id="Path_9135" data-name="Path 9135" d="M6,12H3" transform="translate(12 -3)" fill="none" stroke="#012200" stroke-linecap="round" stroke-linejoin="round" stroke-width="1.5"/>
    <path id="Path_9136" data-name="Path 9136" d="M21,19H18" transform="translate(-18 -3)" fill="none" stroke="#012200" stroke-linecap="round" stroke-linejoin="round" stroke-width="1.5"/>
    <path id="Path_9137" data-name="Path 9137" d="M14,19H3" transform="translate(4 -3)" fill="none" stroke="#012200" stroke-linecap="round" stroke-linejoin="round" stroke-width="1.5"/>
    <path id="Path_9138" data-name="Path 9138" d="M14.586,3.586a2,2,0,1,0,2.828,0,2,2,0,0,0-2.828,0" transform="translate(-11 -3)" fill="none" stroke="#012200" stroke-linecap="round" stroke-linejoin="round" stroke-width="1.5"/>
    <path id="Path_9139" data-name="Path 9139" d="M6.586,10.586a2,2,0,1,0,2.828,0,2,2,0,0,0-2.828,0" transform="translate(5 -3)" fill="none" stroke="#012200" stroke-linecap="round" stroke-linejoin="round" stroke-width="1.5"/>
    <path id="Path_9140" data-name="Path 9140" d="M14.586,17.586a2,2,0,1,0,2.828,0,2,2,0,0,0-2.828,0" transform="translate(-11 -3)" fill="none" stroke="#012200" stroke-linecap="round" stroke-linejoin="round" stroke-width="1.5"/>
  </g>
  <path id="Path_9141" data-name="Path 9141" d="M24,0H0V24H24Z" fill="none"/>
</svg>
