<svg id="Lan" xmlns="http://www.w3.org/2000/svg" width="30" height="30" viewBox="0 0 30 30">
  <rect id="Rectangle_5" data-name="Rectangle 5" width="30" height="30" rx="8" fill="#f3f5f9" opacity="0"/>
  <g id="earth-home-world" transform="translate(4 4)">
    <g id="Group_2130" data-name="Group 2130" transform="translate(2.75 2.75)">
      <path id="Path_9177" data-name="Path 9177" d="M11.25,3a8.25,8.25,0,0,1,0,16.5m0,0a8.25,8.25,0,0,1,0-16.5" transform="translate(-3 -3)" fill="none" stroke="#323232" stroke-linecap="round" stroke-linejoin="round" stroke-width="1.5"/>
      <path id="Path_9178" data-name="Path 9178" d="M9.571,3.972a14.326,14.326,0,0,0,0,14.558,1.938,1.938,0,0,0,3.36,0,14.326,14.326,0,0,0,0-14.558,1.938,1.938,0,0,0-3.36,0ZM3,11.25H19.5" transform="translate(-3 -3)" fill="none" stroke="#323232" stroke-linecap="round" stroke-linejoin="round" stroke-width="1.5"/>
    </g>
    <path id="Path_9179" data-name="Path 9179" d="M0,0H22V22H0Z" fill="none"/>
  </g>
</svg>
